<svg xmlns="http://www.w3.org/2000/svg" viewBox="0 0 597.45 96.6"><defs><style>.a{fill:#a33b72;}</style></defs><path class="a" d="M233.58,1.6h21.63V95H233.58Z"/><polygon class="a" points="447.39 1.6 408.44 1.6 408.44 19.22 432.72 19.22 447.39 1.6"/><polygon class="a" points="443.38 68.42 487.06 15.62 487.06 1.6 473.29 1.6 458.62 19.22 458.63 19.22 407.37 81.03 407.37 95.04 421.22 95.04 443.38 68.42"/><polygon class="a" points="461.79 77.42 447.12 95.04 489.06 95.04 489.06 77.42 461.79 77.42"/><polygon class="a" points="540.6 25.39 526.3 1.6 503.34 1.6 529.16 44.48 540.6 25.39"/><polygon class="a" points="576.22 1.6 551.26 43.12 551.21 43.03 539.51 62.55 539.51 95.04 561.14 95.04 561.14 61.94 597.45 1.6 576.22 1.6"/><path class="a" d="M183.93,65c12.15-5.21,19.23-15.49,19.23-29.5,0-21-15.62-33.91-40.58-33.91H122.13V95h21.63V69.23l0,0V49.78h0V19.22h17.62c13.21,0,19.88,6,19.88,16.29s-6.67,16.28-19.88,16.28h-9.65L163.63,69h0l18,26h23.23Z"/><path class="a" d="M333.16,1.6H290.71V19.31h27.7v0h13.68c18.56,0,30.7,11.08,30.7,29s-12.14,29-30.7,29H312.34V36.78H290.71V95h42.45c30.57,0,51.53-18.42,51.53-46.72S363.73,1.6,333.16,1.6Z"/><path class="a" d="M69.09,94.16a58.77,58.77,0,0,0,19.68-9.4V46.85H69.09Z"/><path class="a" d="M49.18,78.1C32.93,76.78,21.89,64.81,21.89,48.32c0-17.75,12.41-29.9,30.57-29.9,9.48,0,17.35,3.34,24.16,10.55L90.5,16.15C81.42,5.61,67.81,0,51.39,0,21.62,0,0,20.16,0,48.32,0,75.9,20.74,95.79,49.18,96.6Z"/></svg>